<svg width="693" height="578" viewBox="0 0 693 578" fill="none" xmlns="http://www.w3.org/2000/svg">
<path d="M54.3086 450.251L2.23565 97.3665L342.005 2.07394L690.741 95.7125L634.464 448.576L341.994 575.818L54.3086 450.251Z" fill="#2F2E2E" stroke="white" stroke-width="4"/>
<path d="M343 574.949V2.60786L689.748 95.7125L633.471 448.576L343 574.949Z" fill="#444444" stroke="white" stroke-width="4"/>
<path d="M295.671 139.576C311.824 137.459 328.333 136.4 345.2 136.4C362.727 136.4 379.143 137.494 394.449 139.677C391.371 155.829 388.128 168.207 384.737 176.871L383.67 179.6H386.6C405.071 179.6 431.127 178.396 464.742 175.995L465.952 175.909L466.435 174.796C475.687 153.475 483.521 129.564 489.944 103.071L490.427 101.078L488.423 100.645C443.925 91.0241 404.379 86.2 369.8 86.2H343.4C302.448 86.2 262.89 90.8173 224.729 100.056L223.912 100.254L223.482 100.976C211.034 121.857 198.4 146.527 185.577 174.978L185.278 175.642L185.475 176.342C193.548 205.001 206.484 229.282 224.312 249.136L224.319 249.144L224.326 249.151C242.048 268.484 264.566 287.578 291.854 306.439C291.857 306.441 291.86 306.443 291.863 306.445L302.047 313.634L302.057 313.641L302.067 313.648C314.852 322.438 324.177 329.387 330.09 334.511L330.143 334.558L330.2 334.6C336.476 339.307 343.99 346.22 352.753 355.38C368.444 371.837 376.482 392.621 376.791 417.883C371.802 419.135 364.117 419.8 353.6 419.8C342.809 419.8 328.11 415.928 309.391 407.963C290.941 399.942 270.299 391.926 247.466 383.914C224.836 375.833 200.609 371.8 174.8 371.8H170H168.799L168.235 372.86C151.812 403.702 139.961 429.401 132.714 449.934L130.804 455.345L135.664 452.294C152.603 441.657 169.44 436.4 186.2 436.4C203.085 436.4 228.444 441.522 262.408 451.911C296.871 462.73 325.422 469.174 348.022 471.192L348.302 471.217L348.579 471.164C382.03 464.715 414.649 451.823 446.43 432.514C478.206 413.609 503.805 391.652 523.181 366.624L523.728 365.918L523.567 365.039C519.101 340.678 508.146 317.386 490.776 295.168C473.519 273.095 457.57 257.112 442.92 247.343C428.817 237.674 410.335 227.232 387.501 216.014C365.185 204.457 346.705 192.925 332.034 181.426C318.153 170.546 306.028 156.607 295.671 139.576Z" fill="#AFAFAF" stroke="white" stroke-width="4"/>
</svg>
